<?xml version="1.0" encoding="utf-8"?>
<!-- Generator: Adobe Illustrator 16.0.0, SVG Export Plug-In . SVG Version: 6.00 Build 0)  -->
<!DOCTYPE svg PUBLIC "-//W3C//DTD SVG 1.1//EN" "http://www.w3.org/Graphics/SVG/1.1/DTD/svg11.dtd">
<svg version="1.1" id="Layer_1" xmlns="http://www.w3.org/2000/svg" xmlns:xlink="http://www.w3.org/1999/xlink" x="0px" y="0px"
	 width="25px" height="25px" viewBox="0 0 25 25" enable-background="new 0 0 25 25" xml:space="preserve">
<path d="M-61.25-21.257c-3.661,0-6.628,2.563-6.628,5.724c0,1.318,6.622,19.033,6.622,19.033s6.634-17.706,6.634-19.033
	C-54.622-18.694-57.59-21.257-61.25-21.257z M-61.25-9.98c-2.272,0-4.114-1.843-4.114-4.115c0-2.272,1.842-4.114,4.114-4.114
	c2.273,0,4.115,1.842,4.115,4.114C-57.135-11.823-58.977-9.98-61.25-9.98z"/>
<circle cx="6.99" cy="18.008" r="2.934"/>
<path d="M3.621,13.956c1.977-2.406,5.282-2.959,7.383-1.234c2.103,1.723,2.204,5.074,0.227,7.481
	c-0.601,0.731-1.326,1.29-2.102,1.669c1.404-0.16,2.75-0.843,3.718-2.021c1.975-2.41,1.626-5.963-0.781-7.939
	c-2.407-1.977-5.961-1.627-7.938,0.783c-0.518,0.631-0.873,1.345-1.075,2.086C3.219,14.496,3.405,14.219,3.621,13.956z"/>
<path d="M3.049,11.109c2.861-3.812,7.879-4.878,11.205-2.378c3.329,2.493,3.707,7.611,0.844,11.42
	c-0.87,1.158-1.941,2.064-3.102,2.694c2.136-0.341,4.149-1.473,5.55-3.339c2.86-3.815,2.091-9.225-1.721-12.086
	C12.012,4.56,6.601,5.328,3.739,9.145c-0.75,0.998-1.244,2.114-1.505,3.26C2.47,11.959,2.736,11.525,3.049,11.109z"/>
<path d="M1.187,7.938c4.16-5.542,11.455-7.093,16.29-3.457c4.843,3.623,5.392,11.064,1.227,16.604
	c-1.265,1.684-2.822,3.001-4.51,3.916c3.107-0.493,6.033-2.141,8.07-4.854c4.157-5.548,3.039-13.411-2.503-17.572
	C14.218-1.585,6.35-0.468,2.189,5.082C1.099,6.532,0.381,8.154,0,9.82C0.344,9.172,0.731,8.544,1.187,7.938z"/>
</svg>
