<?xml version="1.0" encoding="utf-8"?>
<!-- Generator: Adobe Illustrator 16.0.0, SVG Export Plug-In . SVG Version: 6.00 Build 0)  -->
<!DOCTYPE svg PUBLIC "-//W3C//DTD SVG 1.1//EN" "http://www.w3.org/Graphics/SVG/1.1/DTD/svg11.dtd">
<svg version="1.1" id="Layer_1" xmlns="http://www.w3.org/2000/svg" xmlns:xlink="http://www.w3.org/1999/xlink" x="0px" y="0px"
	 width="25px" height="25px" viewBox="0 0 25 25" enable-background="new 0 0 25 25" xml:space="preserve">
<g>
	<path fill="#010101" d="M12.55,0.601C5.619,0.601,0,6.219,0,13.15c0,5.435,3.456,10.057,8.288,11.8c0,0,0.313,0.11,0.784,0.001
		c0.389-0.089,0.375-0.556,0.375-0.556c0.089-0.584-0.045-2.339-0.045-2.339c-1.589,0.436-2.114,0.181-2.114,0.181
		c-1.485-0.45-1.845-1.261-1.845-1.261c-0.179-0.224-0.299-0.583-0.299-0.583c-0.165-0.644-1.32-1.665-1.32-1.665
		c-0.63-0.404-0.45-0.585-0.45-0.585c1.26-0.449,2.159,0.675,2.159,0.675c0.585,0.945,1.306,1.53,1.306,1.53
		c1.034,0.628,2.609,0.044,2.609,0.044c0.135-0.989,0.765-1.709,0.765-1.709c-3.329-0.314-4.273-1.844-4.273-1.844
		c-2.924-3.914-0.045-7.647-0.045-7.647C5.308,7.078,6.028,5.954,6.028,5.954c1.665-0.135,3.329,1.214,3.329,1.214
		c3.463-0.899,6.341,0.045,6.341,0.045c2.475-1.574,3.329-1.304,3.329-1.304c0.855,1.664,0.181,3.329,0.181,3.329
		c2.429,2.563,0.675,6.433,0.675,6.433c-1.17,2.878-5.083,3.014-5.083,3.014c0.809,0.719,0.854,1.979,0.854,1.979v3.555
		c-0.079,0.904,0.701,0.776,0.899,0.73c-0.144-0.068,7.872-1.916,8.547-11.797C25.572,6.236,19.481,0.601,12.55,0.601z"/>
	<path fill="#010101" d="M8.747,20.933c0-0.099,0.133-0.179,0.298-0.179c0.164,0,0.297,0.08,0.297,0.179s-0.133,0.179-0.297,0.179
		C8.88,21.111,8.747,21.031,8.747,20.933z"/>
	<path fill="#010101" d="M7.824,21.081c0-0.1,0.133-0.179,0.299-0.179c0.164,0,0.297,0.079,0.297,0.179S8.286,21.26,8.123,21.26
		C7.957,21.26,7.824,21.181,7.824,21.081z"/>
	<path fill="#010101" d="M6.817,20.873c0.02-0.096,0.166-0.148,0.328-0.116c0.161,0.034,0.275,0.139,0.256,0.235
		c-0.02,0.097-0.167,0.148-0.328,0.115S6.798,20.97,6.817,20.873z"/>
	<path fill="#010101" d="M5.946,20.222c0.057-0.079,0.212-0.065,0.346,0.03c0.133,0.097,0.194,0.24,0.136,0.319
		c-0.059,0.08-0.213,0.066-0.347-0.029C5.949,20.445,5.887,20.302,5.946,20.222z"/>
	<path fill="#010101" d="M5.518,19.494c0.083-0.053,0.222,0.017,0.311,0.156c0.087,0.138,0.091,0.295,0.008,0.347
		c-0.083,0.053-0.221-0.018-0.31-0.154C5.438,19.702,5.435,19.547,5.518,19.494z"/>
	<path fill="#010101" d="M5.052,18.865c0.064-0.041,0.17,0.012,0.238,0.118s0.071,0.227,0.007,0.266
		c-0.063,0.04-0.17-0.013-0.238-0.119C4.991,19.024,4.988,18.904,5.052,18.865z"/>
	<path fill="#010101" d="M4.55,18.44c0.054-0.034,0.144,0.011,0.201,0.101s0.06,0.191,0.005,0.227
		c-0.054,0.033-0.144-0.013-0.201-0.102C4.498,18.576,4.495,18.474,4.55,18.44z"/>
</g>
</svg>
